<?xml version="1.0" encoding="UTF-8" standalone="no"?>
<!-- Created with Inkscape (http://www.inkscape.org/) -->

<svg
   width="64"
   height="64"
   viewBox="0 0 16.933333 16.933333"
   version="1.1"
   id="svg1"
   inkscape:version="1.2.1 (9c6d41e410, 2022-07-14)"
   sodipodi:docname="favicon.svg"
   inkscape:export-filename="favicon.ico"
   inkscape:export-xdpi="96"
   inkscape:export-ydpi="96"
   xmlns:inkscape="http://www.inkscape.org/namespaces/inkscape"
   xmlns:sodipodi="http://sodipodi.sourceforge.net/DTD/sodipodi-0.dtd"
   xmlns="http://www.w3.org/2000/svg"
   xmlns:svg="http://www.w3.org/2000/svg">
  <sodipodi:namedview
     id="namedview1"
     pagecolor="#ffffff"
     bordercolor="#666666"
     borderopacity="1.0"
     inkscape:showpageshadow="2"
     inkscape:pageopacity="0.0"
     inkscape:pagecheckerboard="0"
     inkscape:deskcolor="#d1d1d1"
     inkscape:document-units="mm"
     inkscape:zoom="8"
     inkscape:cx="39.5"
     inkscape:cy="30.3125"
     inkscape:window-width="1440"
     inkscape:window-height="890"
     inkscape:window-x="-6"
     inkscape:window-y="-6"
     inkscape:window-maximized="1"
     inkscape:current-layer="layer1"
     showgrid="false" />
  <defs
     id="defs1" />
  <g
     inkscape:label="Layer 1"
     inkscape:groupmode="layer"
     id="layer1">
    <g
       id="g1541"
       transform="matrix(0.30403509,0,0,0.30403509,-8.1292204,-6.8695441)">
      <path
         style="fill:#e7a27a;fill-opacity:1;stroke:#b57f5f;stroke-width:0.455999;stroke-linecap:round;stroke-linejoin:round;stroke-opacity:1"
         d="m 34.700305,56.260361 c 0,0 -0.90421,0.75718 -1.23612,1.23613 -0.29851,0.43075 -0.6506,1.43129 -0.6506,1.43129 0,0 0.98884,-0.27076 1.49636,-0.32529 0.38812,-0.0417 1.17107,0 1.17107,0 z"
         id="path17-1"
         sodipodi:nodetypes="cscscc" />
      <path
         style="fill:#e7a27a;fill-opacity:1;stroke:#b57f5f;stroke-width:0.455999;stroke-linecap:round;stroke-linejoin:round;stroke-opacity:1"
         d="m 36.879405,61.109731 c 0,0 -0.79795,0.86844 -1.06469,1.38652 -0.2399,0.46594 -0.45875,1.50381 -0.45875,1.50381 0,0 0.94518,-0.39719 1.44128,-0.51732 0.37939,-0.0919 1.16111,-0.15244 1.16111,-0.15244 z"
         id="path17-3"
         sodipodi:nodetypes="cscscc" />
      <path
         style="fill:#e7a27a;fill-opacity:1;stroke:#b57f5f;stroke-width:0.455999;stroke-linecap:round;stroke-linejoin:round;stroke-opacity:1"
         d="m 39.875185,65.868591 c 0,0 -0.60575,1.01192 -0.76215,1.57325 -0.14067,0.50484 -0.14501,1.56552 -0.14501,1.56552 0,0 0.84527,-0.5802 1.30681,-0.79822 0.35296,-0.16672 1.10625,-0.3842 1.10625,-0.3842 z"
         id="path17-0"
         sodipodi:nodetypes="cscscc" />
      <path
         style="fill:#e7a27a;fill-opacity:1;stroke:#b57f5f;stroke-width:0.455999;stroke-linecap:round;stroke-linejoin:round;stroke-opacity:1"
         d="m 43.452435,70.127701 c 0,0 -0.23073,1.15658 -0.18954,1.73783 0.037,0.52276 0.38918,1.5233 0.38918,1.5233 0,0 0.60133,-0.83038 0.96284,-1.19073 0.27647,-0.27558 0.91297,-0.73341 0.91297,-0.73341 z"
         id="path17-2"
         sodipodi:nodetypes="cscscc" />
      <path
         style="fill:#e7a27a;fill-opacity:1;stroke:#b57f5f;stroke-width:0.455999;stroke-linecap:round;stroke-linejoin:round;stroke-opacity:1"
         d="m 48.647765,73.073241 c 0,0 0.0371,1.17879 0.20888,1.73562 0.15445,0.50079 0.72398,1.39561 0.72398,1.39561 0,0 0.39769,-0.94496 0.66822,-1.37781 0.20689,-0.33102 0.7232,-0.92108 0.7232,-0.92108 z"
         id="path17-4"
         sodipodi:nodetypes="cscscc" />
      <path
         style="fill:#e7a27a;fill-opacity:1;stroke:#b57f5f;stroke-width:0.455999;stroke-linecap:round;stroke-linejoin:round;stroke-opacity:1"
         d="m 55.548355,75.221731 c 0,0 0.43609,1.09579 0.78707,1.56094 0.31566,0.41834 1.15571,1.06594 1.15571,1.06594 0,0 0.0528,-1.02388 0.15947,-1.52299 0.0819,-0.38166 0.36657,-1.11222 0.36657,-1.11222 z"
         id="path17-02"
         sodipodi:nodetypes="cscscc" />
      <path
         style="fill:#e7a27a;fill-opacity:1;stroke:#b57f5f;stroke-width:0.455999;stroke-linecap:round;stroke-linejoin:round;stroke-opacity:1"
         d="m 63.301505,74.340941 c 0,0 0.82996,0.83791 1.33492,1.12871 0.45415,0.26155 1.48057,0.52896 1.48057,0.52896 0,0 -0.35189,-0.96296 -0.44894,-1.46402 -0.0739,-0.38329 -0.0977,-1.16699 -0.0977,-1.16699 z"
         id="path17-02-0"
         sodipodi:nodetypes="cscscc" />
      <path
         style="fill:#e7a27a;fill-opacity:1;stroke:#b57f5f;stroke-width:0.455999;stroke-linecap:round;stroke-linejoin:round;stroke-opacity:1"
         d="m 69.383695,70.573731 c 0,0 1.10756,0.40526 1.68826,0.45364 0.52227,0.0435 1.56494,-0.15111 1.56494,-0.15111 0,0 -0.72809,-0.72179 -1.02907,-1.13398 -0.22993,-0.31545 -0.58485,-1.01457 -0.58485,-1.01457 z"
         id="path17-02-0-4"
         sodipodi:nodetypes="cscscc" />
      <path
         style="fill:#e7a27a;fill-opacity:1;stroke:#b57f5f;stroke-width:0.455999;stroke-linecap:round;stroke-linejoin:round;stroke-opacity:1"
         d="m 73.208185,64.777071 c 0,0 1.16884,0.15728 1.74633,0.0795 0.51939,-0.07 1.49571,-0.48451 1.49571,-0.48451 0,0 -0.86643,-0.5481 -1.2491,-0.88581 -0.29246,-0.25854 -0.78958,-0.86485 -0.78958,-0.86485 z"
         id="path17-02-0-1"
         sodipodi:nodetypes="cscscc" />
      <path
         style="fill:#82803c;fill-opacity:1;stroke:#4f4e24;stroke-width:0.455999;stroke-linecap:round;stroke-linejoin:round;stroke-opacity:1"
         d="m 42.637085,51.399711 c 0,0 0.86823,-2.00534 1.65614,-2.71422 0.47933,-0.43126 1.12641,-0.65719 1.74814,-0.82807 0.78715,-0.21634 1.64082,-0.40498 2.43819,-0.23002 0.53693,0.11782 1.06013,0.41793 1.42612,0.82807 0.17831,0.19982 0.26719,0.47393 0.32203,0.73606 0.0345,0.16511 0,0.50604 0,0.50604 l -5.65846,4.9224 z"
         id="path4-5"
         sodipodi:nodetypes="csssssccc" />
      <path
         style="fill:#82803c;fill-opacity:1;stroke:#4f4e24;stroke-width:0.455999;stroke-linecap:round;stroke-linejoin:round;stroke-opacity:1"
         d="m 51.653815,58.760301 c 0,0 1.01798,0.95845 1.65614,1.1961 0.82226,0.30621 1.74534,0.26123 2.62221,0.23002 0.77599,-0.0276 1.54938,-0.16999 2.30018,-0.36803 1.06035,-0.27969 2.23913,-0.44889 3.08225,-1.15009 0.1375,-0.11435 0.27602,-0.46004 0.27602,-0.46004 l 3.22026,1.79414 -3.7723,4.09433 -5.75046,0.46004 -4.8304,-1.65613 -1.2421,-3.12826 z"
         id="path5-3"
         sodipodi:nodetypes="cssssccccccc" />
      <path
         style="fill:#82803c;fill-opacity:1;stroke:#4f4e24;stroke-width:0.455999;stroke-linecap:round;stroke-linejoin:round;stroke-opacity:1"
         d="m 60.210505,59.266341 c 0,0 -1.8265,-1.71839 -2.25418,-2.85223 -0.30891,-0.81895 -0.27512,-1.75773 -0.13801,-2.62221 0.0669,-0.4219 0.14843,-0.9039 0.46004,-1.19609 0.18751,-0.17583 0.60711,-0.28192 0.86257,-0.31053 0.3822,-0.0428 1.02358,0.17252 1.02358,0.17252 l 3.49628,4.78438 z"
         id="path11-4"
         sodipodi:nodetypes="cssssccc" />
      <path
         style="fill:#82803c;fill-opacity:1;stroke:#4f4e24;stroke-width:0.455999;stroke-linecap:round;stroke-linejoin:round;stroke-opacity:1"
         d="m 44.386695,32.691904 c 0,0 -2.69812,3.117931 -3.23063,4.715828 -1.00187,3.006334 -1.05493,6.400213 -0.39035,9.498623 0.54916,2.560346 3.51319,7.026376 3.51319,7.026376 0,0 0.69771,-1.86513 1.4313,-2.47224 1.41606,-1.17192 3.37793,-2.0252 5.20473,-1.82165 1.21998,0.13593 2.54315,0.86973 3.12283,1.95177 0.71716,1.33867 0.5088,3.17641 -0.13012,4.55413 -0.7107,1.53254 -3.77342,3.38307 -3.77342,3.38307 0,0 1.1144,3.94229 7.2025,4.02577 4.75369,0.0652 6.79636,-3.56708 6.79636,-3.56708 0,0 -1.62401,-0.72076 -2.28823,-1.49963 -0.98182,-1.15128 -1.93805,-2.52744 -2.08189,-4.03366 -0.14613,-1.53017 0.0944,-3.4719 1.30118,-4.42402 1.32972,-1.04913 3.43633,-0.69021 5.07461,-0.26024 1.48973,0.39099 3.90354,2.47225 3.90354,2.47225 0,0 0.4974,-0.3849 0.65059,-0.65059 0.67263,-1.16664 0.96941,-2.5588 1.04094,-3.90355 0.10492,-1.972453 -0.16081,-4.027999 -0.91082,-5.855314 -0.873,-2.126974 -4.28057,-5.288512 -4.03366,-5.59508 0.28578,-0.354834 2.93717,1.14 4.03366,2.21201 2.29268,2.2415 3.8038,5.284626 4.81437,8.327561 0.93598,2.818323 1.29376,5.889133 1.04095,8.848033 -0.27338,3.19968 -1.22938,6.40055 -2.73249,9.23839 -1.60122,3.02307 -3.7754,5.87632 -6.5059,7.93721 -2.26377,1.7086 -4.21698,2.53877 -7.02638,2.92766 -2.25423,0.31203 -5.38451,0.25393 -7.54685,-0.45542 -4.03898,-1.32498 -8.13999,-3.15493 -11.19016,-6.11555 -3.57098,-3.46613 -6.04656,-8.1367 -7.54686,-12.8817 -1.74501,-5.51896 -2.02927,-11.548415 -1.4313,-17.305712 0.43948,-4.231305 1.13512,-8.795115 3.64331,-12.231107 1.26965,-1.739294 3.22738,-3.200911 5.33485,-3.643307 1.38199,-0.290105 2.76566,0.582384 4.16378,0.780708 1.33744,0.189718 2.71225,0.109933 4.03366,0.390355 0.53668,0.11389 1.1794,0.126704 1.56142,0.520473 0.63061,0.650017 0.79442,1.696818 0.78071,2.602363 -0.0145,0.959986 -0.35241,1.95149 -0.91083,2.732481 -0.66601,0.93146 -1.69288,1.601871 -2.73248,2.08189 -0.92684,0.427954 -1.97188,0.642084 -2.99272,0.65059 -0.4423,0.0037 -0.90026,-0.07341 -1.30118,-0.260236 -0.7552,-0.35191 -1.95177,-1.561418 -1.95177,-1.561418"
         id="path2-2"
         sodipodi:nodetypes="csscsssscscsssscssssssssssssssssssssssssc" />
      <ellipse
         style="fill:#000000;fill-opacity:1;stroke:#000000;stroke-width:0.337557;stroke-linecap:round;stroke-linejoin:round;stroke-opacity:1"
         id="path12-6"
         cx="33.57972"
         cy="35.911999"
         rx="1.3846142"
         ry="0.9872902"
         transform="rotate(-15.240905)" />
    </g>
  </g>
</svg>
